<svg width="94" height="44" viewBox="0 0 94 44" fill="none" xmlns="http://www.w3.org/2000/svg">
<path fill-rule="evenodd" clip-rule="evenodd" d="M44.4231 8C44.7417 8 45 8.26551 45 8.59302V9.59442C45.4921 9.58139 46.0554 9.58139 46.705 9.5814H48.295C48.9446 9.58139 49.5079 9.58139 50 9.59442V8.59302C50 8.26551 50.2583 8 50.5769 8C50.8955 8 51.1538 8.26551 51.1538 8.59302V9.66897C51.6943 9.73484 52.1585 9.85356 52.585 10.0769C53.4172 10.5128 54.0939 11.2084 54.5179 12.0638C54.7759 12.5842 54.8904 13.1591 54.9457 13.8551C55 14.5385 55 15.3888 55 16.4734V18.1079C55 19.1926 55 20.0429 54.9457 20.7263C54.8904 21.4223 54.7759 21.9972 54.5179 22.5176C54.0939 23.373 53.4172 24.0686 52.585 24.5045C52.0787 24.7696 51.5194 24.8873 50.8424 24.9442C50.1775 25 49.3502 25 48.2951 25H46.7049C45.6498 25 44.8225 25 44.1576 24.9442C43.4806 24.8873 42.9213 24.7696 42.415 24.5045C41.5828 24.0686 40.9061 23.373 40.4821 22.5176C40.2241 21.9972 40.1096 21.4223 40.0543 20.7263C40 20.0429 40 19.1925 40 18.1079V16.4735C40 15.3888 40 14.5385 40.0543 13.8551C40.1096 13.1591 40.2241 12.5842 40.4821 12.0638C40.9061 11.2084 41.5828 10.5128 42.415 10.0769C42.8415 9.85356 43.3057 9.73484 43.8462 9.66897V8.59302C43.8462 8.26551 44.1045 8 44.4231 8ZM44.2516 10.8193C43.6459 10.8702 43.2554 10.968 42.9389 11.1337C42.3237 11.4559 41.8236 11.97 41.5102 12.6023C41.3489 12.9276 41.2538 13.3291 41.2043 13.9516C41.1543 14.5812 41.1538 15.3831 41.1538 16.5V18.0814C41.1538 19.1983 41.1543 20.0002 41.2043 20.6297C41.2538 21.2523 41.3489 21.6538 41.5102 21.9791C41.8236 22.6114 42.3237 23.1255 42.9389 23.4477C43.2554 23.6134 43.6459 23.7112 44.2516 23.7621C44.864 23.8135 45.6442 23.814 46.7308 23.814H48.2692C49.3558 23.814 50.136 23.8135 50.7484 23.7621C51.3541 23.7112 51.7446 23.6134 52.0611 23.4477C52.6763 23.1255 53.1764 22.6114 53.4898 21.9791C53.6511 21.6538 53.7462 21.2523 53.7957 20.6297C53.8457 20.0002 53.8462 19.1983 53.8462 18.0814V16.5C53.8462 15.3831 53.8457 14.5811 53.7957 13.9516C53.7462 13.3291 53.6511 12.9276 53.4898 12.6023C53.1764 11.97 52.6763 11.4559 52.0611 11.1337C51.7446 10.968 51.3541 10.8702 50.7484 10.8193C50.136 10.7679 49.3558 10.7674 48.2692 10.7674H46.7308C45.6442 10.7674 44.864 10.7679 44.2516 10.8193ZM43.8462 14.5233C43.8462 14.1957 44.1045 13.9302 44.4231 13.9302H50.5769C50.8955 13.9302 51.1538 14.1957 51.1538 14.5233C51.1538 14.8508 50.8955 15.1163 50.5769 15.1163H44.4231C44.1045 15.1163 43.8462 14.8508 43.8462 14.5233ZM43.8462 17.2907C43.8462 16.9632 44.1045 16.6977 44.4231 16.6977H45.1923C45.5109 16.6977 45.7692 16.9632 45.7692 17.2907C45.7692 17.6182 45.5109 17.8837 45.1923 17.8837H44.4231C44.1045 17.8837 43.8462 17.6182 43.8462 17.2907ZM46.5385 17.2907C46.5385 16.9632 46.7968 16.6977 47.1154 16.6977H47.8846C48.2032 16.6977 48.4615 16.9632 48.4615 17.2907C48.4615 17.6182 48.2032 17.8837 47.8846 17.8837H47.1154C46.7968 17.8837 46.5385 17.6182 46.5385 17.2907ZM49.2308 17.2907C49.2308 16.9632 49.4891 16.6977 49.8077 16.6977H50.5769C50.8955 16.6977 51.1538 16.9632 51.1538 17.2907C51.1538 17.6182 50.8955 17.8837 50.5769 17.8837H49.8077C49.4891 17.8837 49.2308 17.6182 49.2308 17.2907ZM43.8462 19.2674C43.8462 18.9399 44.1045 18.6744 44.4231 18.6744H45.1923C45.5109 18.6744 45.7692 18.9399 45.7692 19.2674C45.7692 19.595 45.5109 19.8605 45.1923 19.8605H44.4231C44.1045 19.8605 43.8462 19.595 43.8462 19.2674ZM46.5385 19.2674C46.5385 18.9399 46.7968 18.6744 47.1154 18.6744H47.8846C48.2032 18.6744 48.4615 18.9399 48.4615 19.2674C48.4615 19.595 48.2032 19.8605 47.8846 19.8605H47.1154C46.7968 19.8605 46.5385 19.595 46.5385 19.2674ZM49.2308 19.2674C49.2308 18.9399 49.4891 18.6744 49.8077 18.6744H50.5769C50.8955 18.6744 51.1538 18.9399 51.1538 19.2674C51.1538 19.595 50.8955 19.8605 50.5769 19.8605H49.8077C49.4891 19.8605 49.2308 19.595 49.2308 19.2674Z" fill="#8D9095"/>
</svg>
