<svg width="94" height="44" viewBox="0 0 94 44" fill="none" xmlns="http://www.w3.org/2000/svg">
<path d="M40 16.5C40 14.1198 40 12.9297 40.4541 12.0205C40.8536 11.2209 41.491 10.5707 42.275 10.1632C43.1663 9.7 44.3331 9.7 46.6667 9.7H48.3333C50.6669 9.7 51.8337 9.7 52.725 10.1632C53.509 10.5707 54.1464 11.2209 54.5459 12.0205C55 12.9297 55 14.1198 55 16.5V18.2C55 20.5802 55 21.7703 54.5459 22.6795C54.1464 23.4791 53.509 24.1293 52.725 24.5368C51.8337 25 50.6669 25 48.3333 25H46.6667C44.3331 25 43.1663 25 42.275 24.5368C41.491 24.1293 40.8536 23.4791 40.4541 22.6795C40 21.7703 40 20.5802 40 18.2V16.5Z" fill="#FF0707"/>
<path fill-rule="evenodd" clip-rule="evenodd" d="M44.4231 8C44.7417 8 45 8.26551 45 8.59302V9.59442C45.4921 9.58139 46.0554 9.58139 46.705 9.5814H48.295C48.9446 9.58139 49.5079 9.58139 50 9.59442V8.59302C50 8.26551 50.2583 8 50.5769 8C50.8955 8 51.1538 8.26551 51.1538 8.59302V9.66897C51.6943 9.73484 52.1585 9.85356 52.585 10.0769C53.4172 10.5128 54.0939 11.2084 54.5179 12.0638C54.7759 12.5842 54.8904 13.1591 54.9457 13.8551C55 14.5385 55 15.3888 55 16.4734V18.1079C55 19.1926 55 20.0429 54.9457 20.7263C54.8904 21.4223 54.7759 21.9972 54.5179 22.5176C54.0939 23.373 53.4172 24.0686 52.585 24.5045C52.0787 24.7696 51.5194 24.8873 50.8424 24.9442C50.1775 25 49.3502 25 48.2951 25H46.7049C45.6498 25 44.8225 25 44.1576 24.9442C43.4806 24.8873 42.9213 24.7696 42.415 24.5045C41.5828 24.0686 40.9061 23.373 40.4821 22.5176C40.2241 21.9972 40.1096 21.4223 40.0543 20.7263C40 20.0429 40 19.1925 40 18.1079V16.4735C40 15.3888 40 14.5385 40.0543 13.8551C40.1096 13.1591 40.2241 12.5842 40.4821 12.0638C40.9061 11.2084 41.5828 10.5128 42.415 10.0769C42.8415 9.85356 43.3057 9.73484 43.8462 9.66897V8.59302C43.8462 8.26551 44.1045 8 44.4231 8ZM44.2516 10.8193C43.6459 10.8702 43.2554 10.968 42.9389 11.1337C42.3237 11.4559 41.8236 11.97 41.5102 12.6023C41.3489 12.9276 41.2538 13.3291 41.2043 13.9516C41.1543 14.5812 41.1538 15.3831 41.1538 16.5V18.0814C41.1538 19.1983 41.1543 20.0002 41.2043 20.6297C41.2538 21.2523 41.3489 21.6538 41.5102 21.9791C41.8236 22.6114 42.3237 23.1255 42.9389 23.4477C43.2554 23.6134 43.6459 23.7112 44.2516 23.7621C44.864 23.8135 45.6442 23.814 46.7308 23.814H48.2692C49.3558 23.814 50.136 23.8135 50.7484 23.7621C51.3541 23.7112 51.7446 23.6134 52.0611 23.4477C52.6763 23.1255 53.1764 22.6114 53.4898 21.9791C53.6511 21.6538 53.7462 21.2523 53.7957 20.6297C53.8457 20.0002 53.8462 19.1983 53.8462 18.0814V16.5C53.8462 15.3831 53.8457 14.5811 53.7957 13.9516C53.7462 13.3291 53.6511 12.9276 53.4898 12.6023C53.1764 11.97 52.6763 11.4559 52.0611 11.1337C51.7446 10.968 51.3541 10.8702 50.7484 10.8193C50.136 10.7679 49.3558 10.7674 48.2692 10.7674H46.7308C45.6442 10.7674 44.864 10.7679 44.2516 10.8193Z" fill="#FF7B7B"/>
<path d="M19 0H75V0C75 1.65685 73.6569 3 72 3H22C20.3431 3 19 1.65685 19 0V0Z" fill="#EC2300"/>
<path d="M44 14.593C44 14.2655 44.2583 14 44.5769 14H50.7308C51.0494 14 51.3077 14.2655 51.3077 14.593C51.3077 14.9205 51.0494 15.186 50.7308 15.186H44.5769C44.2583 15.186 44 14.9205 44 14.593Z" fill="white"/>
<path d="M44 17.3605C44 17.0329 44.2583 16.7674 44.5769 16.7674H45.3462C45.6648 16.7674 45.9231 17.0329 45.9231 17.3605C45.9231 17.688 45.6648 17.9535 45.3462 17.9535H44.5769C44.2583 17.9535 44 17.688 44 17.3605Z" fill="white"/>
<path d="M46.6923 17.3605C46.6923 17.0329 46.9506 16.7674 47.2692 16.7674H48.0385C48.3571 16.7674 48.6154 17.0329 48.6154 17.3605C48.6154 17.688 48.3571 17.9535 48.0385 17.9535H47.2692C46.9506 17.9535 46.6923 17.688 46.6923 17.3605Z" fill="white"/>
<path d="M49.3846 17.3605C49.3846 17.0329 49.6429 16.7674 49.9615 16.7674H50.7308C51.0494 16.7674 51.3077 17.0329 51.3077 17.3605C51.3077 17.688 51.0494 17.9535 50.7308 17.9535H49.9615C49.6429 17.9535 49.3846 17.688 49.3846 17.3605Z" fill="white"/>
<path d="M44 19.3372C44 19.0097 44.2583 18.7442 44.5769 18.7442H45.3462C45.6648 18.7442 45.9231 19.0097 45.9231 19.3372C45.9231 19.6647 45.6648 19.9302 45.3462 19.9302H44.5769C44.2583 19.9302 44 19.6647 44 19.3372Z" fill="white"/>
<path d="M46.6923 19.3372C46.6923 19.0097 46.9506 18.7442 47.2692 18.7442H48.0385C48.3571 18.7442 48.6154 19.0097 48.6154 19.3372C48.6154 19.6647 48.3571 19.9302 48.0385 19.9302H47.2692C46.9506 19.9302 46.6923 19.6647 46.6923 19.3372Z" fill="white"/>
<path d="M49.3846 19.3372C49.3846 19.0097 49.6429 18.7442 49.9615 18.7442H50.7308C51.0494 18.7442 51.3077 19.0097 51.3077 19.3372C51.3077 19.6647 51.0494 19.9302 50.7308 19.9302H49.9615C49.6429 19.9302 49.3846 19.6647 49.3846 19.3372Z" fill="white"/>
</svg>
