<svg width="93" height="44" viewBox="0 0 93 44" fill="none" xmlns="http://www.w3.org/2000/svg">
<path fill-rule="evenodd" clip-rule="evenodd" d="M47.6209 9.29144C47.5477 9.24455 47.4523 9.24455 47.3791 9.29144L40.793 13.5096C40.4898 13.7037 40.3077 14.0306 40.3077 14.3806V21.8593C40.3077 22.9 41.1859 23.7437 42.2692 23.7437H52.7308C53.8141 23.7437 54.6923 22.9 54.6923 21.8593V14.3806C54.6923 14.0306 54.5102 13.7037 54.207 13.5096L47.6209 9.29144ZM46.6537 8.24616C47.1662 7.91795 47.8338 7.91795 48.3463 8.24616L54.9324 12.4643C55.5994 12.8914 56 13.6105 56 14.3806V21.8593C56 23.5939 54.5363 25 52.7308 25H42.2692C40.4637 25 39 23.5939 39 21.8593V14.3806C39 13.6106 39.4006 12.8914 40.0676 12.4643L46.6537 8.24616Z" fill="#8D9095"/>
<path d="M43.359 20.1843C43.359 19.8374 43.6517 19.5562 44.0129 19.5562H50.9872C51.3483 19.5562 51.6411 19.8374 51.6411 20.1843C51.6411 20.5312 51.3483 20.8124 50.9872 20.8124H44.0129C43.6517 20.8124 43.359 20.5312 43.359 20.1843Z" fill="#8D9095"/>
</svg>
