<svg width="93" height="44" viewBox="0 0 93 44" fill="none" xmlns="http://www.w3.org/2000/svg">
<path d="M41.1522 21.2352C41.9127 20.6709 42.7412 20.2252 43.6377 19.8982C44.5341 19.5713 45.4882 19.4079 46.5 19.4079C47.5118 19.4079 48.4659 19.5713 49.3623 19.8982C50.2588 20.2252 51.0873 20.6709 51.8478 21.2352C52.4041 20.6238 52.8448 19.916 53.17 19.112C53.4953 18.3079 53.6579 17.4372 53.6579 16.5C53.6579 14.5167 52.9607 12.8279 51.5664 11.4336C50.1721 10.0393 48.4833 9.34211 46.5 9.34211C44.5167 9.34211 42.8279 10.0393 41.4336 11.4336C40.0393 12.8279 39.3421 14.5167 39.3421 16.5C39.3421 17.4372 39.5047 18.3079 39.83 19.112C40.1552 19.916 40.5959 20.6238 41.1522 21.2352ZM46.5002 17.1711C45.6833 17.1711 44.9945 16.8907 44.4336 16.33C43.8726 15.7691 43.5921 15.0803 43.5921 14.2634C43.5921 13.4465 43.8725 12.7576 44.4332 12.1968C44.994 11.6358 45.6829 11.3553 46.4998 11.3553C47.3167 11.3553 48.0055 11.6356 48.5664 12.1963C49.1274 12.7572 49.4079 13.446 49.4079 14.2629C49.4079 15.0798 49.1275 15.7687 48.5668 16.3296C48.006 16.8906 47.3171 17.1711 46.5002 17.1711ZM46.5 25C45.3197 25 44.2125 24.778 43.1783 24.3341C42.1441 23.8902 41.2445 23.2856 40.4795 22.5205C39.7144 21.7555 39.1098 20.8559 38.6659 19.8217C38.222 18.7875 38 17.6803 38 16.5C38 15.3197 38.222 14.2125 38.6659 13.1783C39.1098 12.1441 39.7144 11.2445 40.4795 10.4795C41.2445 9.71439 42.1441 9.10985 43.1783 8.66591C44.2125 8.22197 45.3197 8 46.5 8C47.6803 8 48.7875 8.22197 49.8217 8.66591C50.8559 9.10985 51.7555 9.71439 52.5205 10.4795C53.2856 11.2445 53.8902 12.1441 54.3341 13.1783C54.778 14.2125 55 15.3197 55 16.5C55 17.6803 54.778 18.7875 54.3341 19.8217C53.8902 20.8559 53.2856 21.7555 52.5205 22.5205C51.7555 23.2856 50.8559 23.8902 49.8217 24.3341C48.7875 24.778 47.6803 25 46.5 25ZM46.5 23.6579C47.3075 23.6579 48.0861 23.528 48.8357 23.2682C49.5854 23.0083 50.251 22.645 50.8325 22.1782C50.251 21.7285 49.594 21.378 48.8617 21.1269C48.1292 20.8756 47.3419 20.75 46.5 20.75C45.6581 20.75 44.8694 20.8741 44.1341 21.1224C43.3988 21.3709 42.7432 21.7228 42.1675 22.1782C42.749 22.645 43.4146 23.0083 44.1643 23.2682C44.9139 23.528 45.6925 23.6579 46.5 23.6579ZM46.5 15.8289C46.9451 15.8289 47.3173 15.6792 47.6166 15.3798C47.9161 15.0805 48.0658 14.7083 48.0658 14.2632C48.0658 13.818 47.9161 13.4458 47.6166 13.1465C47.3173 12.8471 46.9451 12.6974 46.5 12.6974C46.0549 12.6974 45.6827 12.8471 45.3834 13.1465C45.0839 13.4458 44.9342 13.818 44.9342 14.2632C44.9342 14.7083 45.0839 15.0805 45.3834 15.3798C45.6827 15.6792 46.0549 15.8289 46.5 15.8289Z" fill="#8D9095"/>
</svg>
