<svg fill="none" height="44" viewBox="0 0 94 44" width="94" xmlns="http://www.w3.org/2000/svg"><circle cx="47" cy="17" fill="#ff0707" r="9"/><path d="m47.0017 26.5c-1.314 0-2.549-.2493-3.7052-.748s-2.1618-1.1754-3.017-2.0302c-.8552-.8549-1.5323-1.8601-2.0313-3.0158-.4988-1.1557-.7482-2.3904-.7482-3.7043 0-1.314.2493-2.549.748-3.7052s1.1754-2.1618 2.0303-3.017c.8548-.85517 1.86-1.53225 3.0157-2.03125 1.1557-.49883 2.3904-.74825 3.7043-.74825 1.314 0 2.549.24933 3.7052.748s2.1618 1.17542 3.017 2.0303c.8552.8548 1.5323 1.86 2.0313 3.0157.4988 1.1557.7482 2.3904.7482 3.7043 0 1.314-.2493 2.549-.748 3.7052s-1.1754 2.1618-2.0302 3.017c-.8549.8552-1.8601 1.5323-3.0158 2.0313-1.1557.4988-2.3904.7482-3.7043.7482zm-.0017-1.5c2.2333 0 4.125-.775 5.675-2.325s2.325-3.4417 2.325-5.675-.775-4.125-2.325-5.675-3.4417-2.325-5.675-2.325-4.125.775-5.675 2.325-2.325 3.4417-2.325 5.675.775 4.125 2.325 5.675 3.4417 2.325 5.675 2.325z" fill="#ff7b7b"/><path d="m50.3095 22.3944h-1.8423l-4.0037-4.3443v-1.2827h2.0767c.586 0 1.0575-.1433 1.4145-.4298.3572-.2865.5794-.6573.6665-1.1125h-5.579v-.9922h5.554c-.1-.4194-.3244-.7565-.6732-1.0115-.3487-.2552-.7942-.3828-1.3365-.3828h-3.5443v-1.1462h7.9155v.9922h-1.8557c.2217.2167.4062.4536.5537.7108.1475.257.2458.5361.2948.8375h1.0072v.9922h-.9807c-.1078.7847-.4639 1.4392-1.0683 1.9635-.6045.5244-1.376.7865-2.3145.7865h-.25l-.025.0733 4 4.271z" fill="#fff"/><path d="m19 0h56c0 1.65685-1.3431 3-3 3h-50c-1.6569 0-3-1.34315-3-3z" fill="#ec2300"/></svg>